HIERARCHY
ROOT Hips
{
	OFFSET 0.000000 0.000000 0.000000
	CHANNELS 6 Xposition Yposition Zposition Xrotation Yrotation Zrotation
	JOINT LeftUpLeg_virtual
	{
		OFFSET 0.000000 0.000000 0.000000
		CHANNELS 3 Xrotation Yrotation Zrotation
		JOINT LeftUpLeg
		{
			OFFSET 13.026900 -6.336304 -1.092800
			CHANNELS 3 Xrotation Yrotation Zrotation
			JOINT LeftLeg
			{
				OFFSET 0.524474 -46.096886 9.782700
				CHANNELS 3 Xrotation Yrotation Zrotation
				JOINT LeftFoot
				{
					OFFSET -0.524474 -53.427422 -12.948200
					CHANNELS 3 Xrotation Yrotation Zrotation
					JOINT LeftToeBase
					{
						OFFSET 0.192200 -14.009700 16.364100
						CHANNELS 3 Xrotation Yrotation Zrotation
						JOINT LeftToe_End
						{
							OFFSET -1.784700 -0.561700 9.474800
							CHANNELS 3 Xrotation Yrotation Zrotation
							End Site
							{
								OFFSET 0 0 0
							}
						}
					}
				}
			}
		}
	}
	JOINT RightUpLeg_virtual
	{
		OFFSET 0.000000 0.000000 0.000000
		CHANNELS 3 Xrotation Yrotation Zrotation
		JOINT RightUpLeg
		{
			OFFSET -12.883000 -6.336304 -1.092800
			CHANNELS 3 Xrotation Yrotation Zrotation
			JOINT RightLeg
			{
				OFFSET -0.524587 -46.096825 9.782800
				CHANNELS 3 Xrotation Yrotation Zrotation
				JOINT RightFoot
				{
					OFFSET 0.524587 -53.427383 -12.948300
					CHANNELS 3 Xrotation Yrotation Zrotation
					JOINT RightToeBase
					{
						OFFSET -0.192200 -14.009700 16.364100
						CHANNELS 3 Xrotation Yrotation Zrotation
						JOINT RightToe_End
						{
							OFFSET 1.784700 -0.561700 9.474800
							CHANNELS 3 Xrotation Yrotation Zrotation
							End Site
							{
								OFFSET 0 0 0
							}
						}
					}
				}
			}
		}
	}
	JOINT Spine_virtual
	{
		OFFSET 0.000000 0.000000 0.000000
		CHANNELS 3 Xrotation Yrotation Zrotation
		JOINT Spine
		{
			OFFSET 0.072000 7.257294 -0.789700
			CHANNELS 3 Xrotation Yrotation Zrotation
			JOINT Spine1
			{
				OFFSET 0.000000 12.508769 -0.658067
				CHANNELS 3 Xrotation Yrotation Zrotation
				JOINT Spine1_split
				{
					OFFSET 0.000000 12.508769 -0.658067
					CHANNELS 3 Xrotation Yrotation Zrotation
					JOINT Spine2
					{
						OFFSET 0.000000 12.508769 -0.658067
						CHANNELS 3 Xrotation Yrotation Zrotation
						JOINT Neck_virtual
						{
							OFFSET 0.000000 0.000000 0.000000
							CHANNELS 3 Xrotation Yrotation Zrotation
							JOINT Neck
							{
								OFFSET 0.000000 14.033295 7.520400
								CHANNELS 3 Xrotation Yrotation Zrotation
								JOINT Head
								{
									OFFSET 0.000000 8.198502 5.703100
									CHANNELS 3 Xrotation Yrotation Zrotation
									JOINT HeadTop_End
									{
										OFFSET 0.000000 17.760803 13.332701
										CHANNELS 3 Xrotation Yrotation Zrotation
										End Site
										{
											OFFSET 0 0 0
										}
									}
								}
							}
						}
						JOINT LeftShoulder_virtual
						{
							OFFSET 0.000000 0.000000 0.000000
							CHANNELS 3 Xrotation Yrotation Zrotation
							JOINT LeftShoulder
							{
								OFFSET 6.292450 5.785301 -0.669000
								CHANNELS 3 Xrotation Yrotation Zrotation
								JOINT LeftShoulder_split
								{
									OFFSET 6.292450 5.785301 -0.669000
									CHANNELS 3 Xrotation Yrotation Zrotation
									JOINT LeftArm
									{
										OFFSET 13.907140 -6.093903 1.965100
										CHANNELS 3 Xrotation Yrotation Zrotation
										JOINT LeftForeArm
										{
											OFFSET 34.140198 0.000000 0.000000
											CHANNELS 3 Xrotation Yrotation Zrotation
											JOINT LeftHand
											{
												OFFSET 40.960209 0.000000 0.000000
												CHANNELS 3 Xrotation Yrotation Zrotation
												End Site
												{
													OFFSET 0 0 0
												}
											}
										}
									}
								}
							}
						}
						JOINT RightShoulder_virtual
						{
							OFFSET 0.000000 0.000000 0.000000
							CHANNELS 3 Xrotation Yrotation Zrotation
							JOINT RightShoulder
							{
								OFFSET -6.292450 5.785301 -0.669000
								CHANNELS 3 Xrotation Yrotation Zrotation
								JOINT RightShoulder_split
								{
									OFFSET -6.292450 5.785301 -0.669000
									CHANNELS 3 Xrotation Yrotation Zrotation
									JOINT RightArm
									{
										OFFSET -13.907140 -6.093903 1.965100
										CHANNELS 3 Xrotation Yrotation Zrotation
										JOINT RightForeArm
										{
											OFFSET -34.140198 0.000000 0.000000
											CHANNELS 3 Xrotation Yrotation Zrotation
											JOINT RightHand
											{
												OFFSET -40.960209 0.000000 0.000000
												CHANNELS 3 Xrotation Yrotation Zrotation
												End Site
												{
													OFFSET 0 0 0
												}
											}
										}
									}
								}
							}
						}
					}
				}
			}
		}
	}
}
MOTION
Frames: 7
Frame Time: 0.03333333
-2.075848 73.161209 9.742092 0.000000 0.000000 0.000000 37.183061 -54.047676 30.245362 -79.679231 -7.904390 26.697579 87.571754 -10.950771 1.110930 -26.322897 1.660979 -14.884801 -1.836411 -0.000618 -0.000026 0.000000 0.000000 0.000000 37.183061 -54.047676 30.245362 -80.580270 -0.176663 -33.563027 88.672309 6.349483 1.300899 -25.385814 -2.932210 13.198863 0.951651 0.013518 -0.061002 0.000000 0.000000 0.000000 37.183061 -54.047676 30.245362 8.805215 -2.229187 -3.051911 3.265677 -3.494257 -2.572571 0.000000 0.000000 0.000000 0.000000 0.000000 0.000000 3.249610 -3.433789 -2.640595 -6.044928 16.474027 -5.713688 -39.527736 37.445833 9.871841 0.000000 0.000000 0.000000 3.249610 -3.433789 -2.640595 5.075860 -7.804275 -6.702657 0.000000 0.000000 0.000000 -62.677798 3.445335 -22.584342 20.881972 -30.367772 16.998478 0.000000 0.000000 0.000000 3.249610 -3.433789 -2.640595 5.114732 8.674756 15.430164 0.000000 0.000000 0.000000 -11.369395 0.763080 49.913609 -17.712887 36.414747 7.487003 0.000000 0.000000 0.000000 
-1.722775 69.007973 8.850830 0.000000 0.000000 0.000000 38.716415 -53.620383 31.197002 -84.571600 -11.327758 27.400547 92.158445 -11.818894 1.045371 -26.221784 1.797879 -15.957991 -1.836411 -0.000625 -0.000026 0.000000 0.000000 0.000000 38.716415 -53.620383 31.197002 -85.965765 1.682022 -34.357156 93.892022 7.516585 1.356987 -25.706370 -2.777097 12.387902 0.710723 0.013945 -0.061725 0.000000 0.000000 0.000000 38.716415 -53.620383 31.197002 8.232815 -2.121960 -2.911204 3.591995 -3.361495 -2.519241 0.000000 0.000000 0.000000 0.000000 0.000000 0.000000 3.576394 -3.306018 -2.583292 -4.843159 17.213129 -6.645899 -39.838711 36.524389 9.074945 0.000000 0.000000 0.000000 3.576394 -3.306018 -2.583292 5.547263 -8.009823 -6.640972 0.000000 0.000000 0.000000 -64.034273 1.869227 -22.502840 21.515678 -29.366808 16.956520 0.000000 0.000000 0.000000 3.576394 -3.306018 -2.583292 5.583195 9.006416 15.903911 0.000000 0.000000 0.000000 -10.769837 1.892022 48.290841 -18.711325 38.477266 8.552189 0.000000 0.000000 0.000000 
-1.391411 65.023903 8.056698 0.000000 0.000000 0.000000 39.840995 -53.338074 31.953756 -89.093589 -14.640034 27.982838 96.338889 -12.778042 0.973718 -25.816013 1.839251 -17.056145 -1.836411 -0.000626 -0.000027 0.000000 0.000000 0.000000 39.840995 -53.338074 31.953756 -91.234156 3.838483 -35.090145 98.757760 9.001523 1.332925 -25.018431 -2.872919 11.808239 0.115779 0.014782 -0.062317 0.000000 0.000000 0.000000 39.840995 -53.338074 31.953756 7.651402 -1.993481 -2.784170 3.920445 -3.180471 -2.492624 0.000000 0.000000 0.000000 0.000000 0.000000 0.000000 3.905907 -3.129783 -2.551265 -3.463313 17.929194 -7.697887 -39.698135 35.578609 8.116832 0.000000 0.000000 0.000000 3.905907 -3.129783 -2.551265 5.951876 -8.061983 -6.968059 0.000000 0.000000 0.000000 -65.208567 0.226330 -22.718877 22.757994 -28.220316 17.107332 0.000000 0.000000 0.000000 3.905907 -3.129783 -2.551265 6.023420 9.139914 16.277674 0.000000 0.000000 0.000000 -9.808072 2.868997 46.606352 -19.217610 39.891419 9.114107 0.000000 0.000000 0.000000 
-1.137794 61.266373 7.351696 0.000000 0.000000 0.000000 40.901703 -53.194954 32.746919 -93.261158 -17.928121 28.542954 100.079101 -13.770344 0.899872 -25.188747 1.835604 -18.260775 -1.836411 -0.000622 -0.000027 0.000000 0.000000 0.000000 40.901703 -53.194954 32.746919 -96.554348 6.410188 -35.204024 103.357168 9.999856 1.199754 -23.313281 -2.960303 11.315241 -0.788801 0.016021 -0.062734 0.000000 0.000000 0.000000 40.901703 -53.194954 32.746919 7.037911 -1.862273 -2.684044 4.215041 -2.970480 -2.509416 0.000000 0.000000 0.000000 0.000000 0.000000 0.000000 4.201923 -2.924080 -2.561445 -2.114959 18.744307 -8.721083 -39.204241 34.691408 7.182726 0.000000 0.000000 0.000000 4.201923 -2.924080 -2.561445 6.284071 -7.922255 -6.979382 0.000000 0.000000 0.000000 -66.176917 -0.958016 -23.215161 24.010613 -26.960165 17.250411 0.000000 0.000000 0.000000 4.201923 -2.924080 -2.561445 6.382109 9.235172 16.656484 0.000000 0.000000 0.000000 -8.533643 3.718782 44.763687 -19.327567 40.249553 9.261557 0.000000 0.000000 0.000000 
-1.008041 57.920273 6.730282 0.000000 0.000000 0.000000 41.844860 -53.132386 33.436624 -96.933744 -21.101021 29.152146 103.219649 -14.805832 0.825715 -24.382124 1.714043 -19.485683 -1.836411 -0.000619 -0.000026 0.000000 0.000000 0.000000 41.844860 -53.132386 33.436624 -101.639362 8.897307 -34.815257 107.407682 10.648639 0.976329 -21.033450 -3.121971 11.027165 -1.935088 0.017110 -0.062993 0.000000 0.000000 0.000000 41.844860 -53.132386 33.436624 6.368894 -1.742707 -2.595764 4.432590 -2.761268 -2.546495 0.000000 0.000000 0.000000 0.000000 0.000000 0.000000 4.421208 -2.718944 -2.591094 -0.710669 19.560883 -9.602352 -38.279078 33.848321 6.082582 0.000000 0.000000 0.000000 4.421208 -2.718944 -2.591094 6.537872 -7.623683 -7.157069 0.000000 0.000000 0.000000 -66.824747 -2.274227 -23.751570 25.131094 -25.456429 17.107168 0.000000 0.000000 0.000000 4.421208 -2.718944 -2.591094 6.643934 9.613421 17.290342 0.000000 0.000000 0.000000 -7.123549 3.986117 42.502741 -19.158273 39.848707 9.311167 0.000000 0.000000 0.000000 
-0.958118 55.074005 6.117558 0.000000 0.000000 0.000000 42.191503 -53.161995 33.577067 -100.002507 -24.005386 29.853606 105.688107 -15.932041 0.752827 -23.299548 1.312991 -20.566702 -1.836411 -0.000624 -0.000027 0.000000 0.000000 0.000000 42.191503 -53.161995 33.577067 -106.141857 11.051110 -34.146424 110.931930 10.968834 0.688777 -18.601709 -3.350092 10.829154 -3.250230 0.018056 -0.063124 0.000000 0.000000 0.000000 42.191503 -53.161995 33.577067 5.788349 -1.653657 -2.510601 4.751676 -2.597970 -2.608526 0.000000 0.000000 0.000000 0.000000 0.000000 0.000000 4.741892 -2.559213 -2.645830 0.558084 20.405190 -10.173073 -37.310974 33.103328 4.907088 0.000000 0.000000 0.000000 4.741892 -2.559213 -2.645830 6.828882 -7.386646 -7.244339 0.000000 0.000000 0.000000 -67.452018 -3.471920 -24.383243 26.252385 -24.034146 16.888987 0.000000 0.000000 0.000000 4.741892 -2.559213 -2.645830 6.916402 10.069564 18.283211 0.000000 0.000000 0.000000 -6.044948 4.237612 39.947249 -18.044026 38.801280 8.881810 0.000000 0.000000 0.000000 
-0.947628 52.556450 5.548920 0.000000 0.000000 0.000000 42.316358 -53.221292 33.538452 -102.769615 -26.703434 30.530430 107.719999 -17.045557 0.695235 -22.051170 0.766647 -21.566893 -1.836412 -0.000619 -0.000026 0.000000 0.000000 0.000000 42.316358 -53.221292 33.538452 -110.462423 13.144498 -33.255655 114.042569 11.224186 0.398657 -15.752626 -3.692364 10.961066 -4.678839 0.018851 -0.063119 0.000000 0.000000 0.000000 42.316358 -53.221292 33.538452 5.278186 -1.580906 -2.431374 5.123550 -2.450807 -2.671224 0.000000 0.000000 0.000000 0.000000 0.000000 0.000000 5.115190 -2.415608 -2.701719 1.749162 21.258127 -10.710898 -36.514977 32.321746 3.918836 0.000000 0.000000 0.000000 5.115190 -2.415608 -2.701719 7.159114 -7.435071 -7.318990 0.000000 0.000000 0.000000 -68.208694 -4.376784 -24.770770 27.382070 -22.674690 16.743592 0.000000 0.000000 0.000000 5.115190 -2.415608 -2.701719 7.186548 10.572517 19.349209 0.000000 0.000000 0.000000 -5.002890 4.389412 37.270290 -16.348111 37.484966 8.226746 0.000000 0.000000 0.000000 
